<svg width="97" height="71" xmlns="http://www.w3.org/2000/svg" xmlns:xlink="http://www.w3.org/1999/xlink" xmlns:svgjs="http://svgjs.com/svgjs" viewBox="0 0.556 97 69.889" fill="#ed192e"><svg xmlns="http://www.w3.org/2000/svg" width="97" height="71" viewBox="0 0.998 96.084 69.229"><path paint-order="stroke fill markers" fill-rule="evenodd" d="M.486 60.168h8.64v1.32c-1.29.007-2.057.097-2.21.951l.017 1.591h6.732l-.015-1.742c-.058-.75-.837-.853-2.163-.8l.015-1.323h8.637l.017 1.323c-1.197-.028-2.118.085-2.184.838V67.7c.076.785.784.874 2.167.865v1.366l-8.637-.014.016-1.352c1.332-.009 2.084-.042 2.135-.865v-1.723l-6.74.016v1.691c.085.833.796.87 2.216.868v1.379H.494l.014-1.357c1.57-.03 2.084-.186 2.167-.874l-.015-5.275c-.103-.895-.899-.938-2.152-.938l-.022-1.32zm28.993-.374c6.301.043 8.882 2.343 8.882 5.217 0 2.874-2.464 5.192-8.882 5.215-6.232.02-8.88-2.341-8.88-5.215 0-2.874 2.717-5.257 8.88-5.217zm0 1.881c3.167 0 3.91 1.526 3.91 3.37 0 1.847-.716 3.3-3.91 3.35-3.136.055-3.908-1.503-3.908-3.35 0-1.844.64-3.37 3.908-3.37zm9.372-1.507v1.328c1.476 0 2.064.172 2.104.929v5.273c0 .694-.619.904-2.104.891v1.344h6.874v-1.354c-1.352-.004-2.157-.196-2.188-.88l.015-4.994 5.799 6.849c.281.283.63.379 1.018.379h5.313v-7.508c.001-.78.953-.939 2.172-.929l.015-1.328h-6.955v1.328c1.213-.037 2.128.11 2.186.929l-.013 4.907-5.977-6.957c-.13-.138-.318-.202-.558-.207h-7.701zm19.834-.001v1.322c1.423-.019 2.028.31 2.021.927v5.28c0 .619-.807.871-2.187.876l.014 1.361h11.17c3.823-.195 6.636-1.477 6.7-4.613l-.014-.777c-.163-3.14-3.674-4.378-6.672-4.376H58.685zm6.242 1.838l-.014 6.02 4.286.012c1.396-.064 2.334-1.049 2.311-2.728l-.006-.637c-.037-1.793-1.116-2.632-2.728-2.68l-3.849.013zm14.322-1.86v1.344c1.449.025 2.637.166 2.304.943l-3.594 5.27c-.524.676-1.062.865-2.354.88l-.018 1.344 6.912.014v-1.374c-1.227.006-2.104-.147-1.72-.865l.55-.756 6.758-.016.532.772c.253.471-.318.939-1.89.865v1.374h9.354l-.019-1.374c-1.036.033-1.845-.036-2.457-.865l-5.16-7.078c-.24-.276-.482-.473-.963-.463l-8.235-.015zm5.337 2.12l-2.035 2.92 4.235.009-2.2-2.93zM93.348.998C73.727 9.615 49.661 18.23 25.41 26.848L6.537 33.784c-7.815 2.659-8.146 8.114-3.513 12.299 1.225 1.14 2.393 2.095 3.364 3.024 5.757 5.518 8.112 6.373 9.027 9.275l7.94-.001L6.088 43.917c-4.293-4.224.64-5.936 4.956-7.125l53.901-17.039 15.54-5.03c4.775-1.426 8.84-2.602 11.549-9.577l1.447-3.388.198-.652s-.334-.116-.331-.108zM56.603 25.082L21.439 35.445c-3.173.865-6.185 1.787-8.798 2.588-2.832.867-4.846 1.26-5.753 2.018-.828.691-.815 1.826-.005 2.582.575.478 1.112.93 1.686 1.409l14.1-3.297 3.662-.861c-.658-.465-.648-1.04.088-1.267l18.189-4.383 18.581-4.513 12.717-3.116c3.083-.62 5.283-2.028 6.88-3.978 1.594-2.069 3.035-4.168 4.008-6.381.146-.256.112-.39-.128-.411-8.736 3.193-20.043 6.164-30.063 9.247zM9.591 44.89l4.092 3.395L34.95 44.63c-.909-.543-.645-1.23.586-1.406l30.718-5.32c7.093-1.108 7.526-1.587 12.59-8.47.428-.583.32-.743-.6-.476l-27.834 6.42-31.745 7.356-9.074 2.155zm5.15 4.25l4.65 3.935 25.558-2.842c-.786-.502-.573-1.242.457-1.328l13.384-1.763c5.714-.68 7.183-2.428 11.47-7.1.233-.29.033-.35-.706-.194l-26.332 4.491-28.48 4.8zm5.735 4.833l5.19 4.334h33.886l-12.88-7.183-26.196 2.849z"/></svg></svg>