<svg width="29" height="18" xmlns="http://www.w3.org/2000/svg" xmlns:xlink="http://www.w3.org/1999/xlink" xmlns:svgjs="http://svgjs.com/svgjs" viewBox="0 0.802 29 16.397" fill="#fff"><svg xmlns="http://www.w3.org/2000/svg" width="29" height="18" viewBox="0 0.9 29 16.397"><path paint-order="stroke fill markers" fill-rule="evenodd" d="M24.166 7.927c-.217 0-.434.035-.64.059l-2.489-2.401h3.13V2.07L19.671 4.25 16.204.9h-5.33v2.342h4.339l2.416 2.343h-4.337L8.458 7.927 6.041 5.585H0v2.342h4.833C2.163 7.927 0 10.024 0 12.612c0 2.588 2.163 4.685 4.833 4.685 2.67 0 4.834-2.097 4.834-4.685l2.416 2.342h3.625l4.217-7.144 1.22 1.183c-1.099.855-1.812 2.155-1.812 3.619 0 2.588 2.163 4.685 4.833 4.685 2.671 0 4.834-2.097 4.834-4.685 0-2.588-2.163-4.685-4.834-4.685zM4.833 14.954c-1.329 0-2.417-1.054-2.417-2.342s1.088-2.343 2.417-2.343c1.33 0 2.417 1.055 2.417 2.343s-1.088 2.342-2.417 2.342zm19.333 0c-1.329 0-2.416-1.054-2.416-2.342s1.087-2.343 2.416-2.343c1.33 0 2.417 1.055 2.417 2.343s-1.087 2.342-2.417 2.342z"/></svg></svg>